<svg width="192" height="192" xmlns="http://www.w3.org/2000/svg">
    <title>Box3 Docs</title>
    <linearGradient id="background" x1="0" x2="0" y1="0" y2="1">
        <stop stop-color="#111111" offset="0%"></stop>
        <stop stop-color="#888888" offset="100%"></stop>
    </linearGradient>
    <circle cx="96" cy="96" r="96" fill="url(#background)" />
    <path
        d="M 32 44 q 64 8,64 32 q 0 -24,64 -32 v 96 q -64 8,-64 32 q 0 -24,-64 -32 v -96 z m 64 24 v 96"
        fill="none" stroke="white" stroke-width="8"></path>
    <path
        d="M 32 44 m 80 40 m 0 0 q 12 -16,32 -16 m -32 33 q 12 -16,32 -16 m -32 33 q 12 -16,32 -16 m -32 33 q 12 -16,32 -16"
        stroke-width="6" fill="none" stroke="white"></path>
    <path
        d="M 32 44 m 12 43 l 20 11.5470053 l 20 -11.5470053 m -20 11.5470053 v 23.0940107 m 0 0 l 20 -11.5470053 v -23.0940107 l -20 -11.5470053 l -20 11.5470053 v 23.0940107 l 20 11.5470053 z"
        stroke-width="6" fill="none" stroke="white"></path>
    <!-- 40px 23.0940107px 11.5470053 20-->
    <!-- 11.5470053->11.547005383792516 23.0940107->23.094010767585033
    34.6410162->34.64101615137755-->
</svg>