<svg width="136" height="136" xmlns="http://www.w3.org/2000/svg">
    <title>Box3 Docs</title>
    <path
        d="M 4 4 q 64 8,64 32 q 0 -24,64 -32 v 96 q -64 8,-64 32 q 0 -24,-64 -32 v -96 z"
        fill="white" stroke="white" stroke-width="4"></path>
    <path
        d="M 4 4 m 80 40 m 0 0 q 12 -16,32 -16 m -32 33 q 12 -16,32 -16 m -32 33 q 12 -16,32 -16 m -32 33 q 12 -16,32 -16"
        stroke-width="6" fill="none" stroke="#02a6f2"></path>
    <path
        d="M 4 4 m 12 43 l 20 11.5470053 l 20 -11.5470053 m -20 11.5470053 v 23.0940107 m 0 0 l 20 -11.5470053 v -23.0940107 l -20 -11.5470053 l -20 11.5470053 v 23.0940107 l 20 11.5470053 z"
        stroke-width="6" fill="none" stroke="#02a6f2"></path>
    <!-- 40px 23.0940107px 11.5470053 20-->
    <!-- 11.5470053->11.547005383792516 23.0940107->23.094010767585033
    34.6410162->34.64101615137755-->
</svg>