<svg id="_1" xmlns="http://www.w3.org/2000/svg" viewBox="0 0 70 70"><style>.st0{fill:rgb(252,131,8)}</style><path class="st0" d="M13.97 30.7c0-.64-.46-1.15-1.03-1.15h-1.62v2.29h1.75c.5-.08.9-.55.9-1.14zm-.33 3.05h-.57c-.05 0-.09.01-.14.01h-1.62v3.65h2.33c.69 0 1.28-.84 1.28-1.83s-.58-1.83-1.28-1.83z"/><path class="st0" d="M58.68 24.84h-9.29a1.99 1.99 0 00-.8-.83l-12.23-6.83c-.3-.17-.64-.25-.98-.25s-.67.08-.98.25l-12.2 6.84c-.28.16-.49.37-.65.61h-10.4c-4.96 0-8.98 4.02-8.98 8.98s4.02 8.98 8.98 8.98h8.01l14.82 8.28c.44.24.92.37 1.41.37.49 0 .98-.12 1.41-.37l15.21-8.5h6.66c4.84 0 8.76-3.92 8.76-8.76s-3.91-8.77-8.75-8.77zM13.64 39.32l-3-.07H9.4V27.7h1.35l2.37-.06c1.62 0 2.76 1.37 2.76 3.06 0 .64-.19 1.24-.52 1.74.89.67 1.48 1.82 1.48 3.15-.01 2.05-1.44 3.73-3.2 3.73zm20.26 8.06l-11.37-6.35V27.69l11.37 6.35v13.34zm1.5-15.93l-10.17-5.68 10.17-5.68 10.17 5.68-10.17 5.68zm12.82 9.6L36.9 47.38V34.04l11.33-6.33v13.34zm13.69-2.41c-.21.17-.45.25-.7.25-.32 0-.63-.14-.85-.4l-2.67-3.23-2.67 3.23c-.22.26-.53.4-.85.4a1.098 1.098 0 01-.85-1.8l2.94-3.56-2.59-3.13c-.39-.47-.32-1.16.15-1.55.47-.39 1.16-.32 1.55.15l2.32 2.81L60.01 29c.39-.47 1.08-.54 1.55-.15s.54 1.08.15 1.55l-2.59 3.13 2.94 3.56c.39.47.32 1.17-.15 1.55z"/></svg>